<?xml version="1.0" standalone="no"?><!DOCTYPE svg PUBLIC "-//W3C//DTD SVG 1.1//EN" "http://www.w3.org/Graphics/SVG/1.1/DTD/svg11.dtd"><svg t="1548388114291" class="icon" style="" viewBox="0 0 1024 1024" version="1.1" xmlns="http://www.w3.org/2000/svg" p-id="3017" xmlns:xlink="http://www.w3.org/1999/xlink" width="200" height="200"><defs><style type="text/css"></style></defs><path d="M409.6 614.4H102.4c-42.496 0-76.8-34.304-76.8-76.8v-460.8C25.6 34.304 59.904 0 102.4 0h307.2c42.496 0 76.8 34.304 76.8 76.8v460.8c0 42.496-34.304 76.8-76.8 76.8zM102.4 51.2c-14.336 0-25.6 11.264-25.6 25.6v460.8c0 14.336 11.264 25.6 25.6 25.6h307.2c14.336 0 25.6-11.264 25.6-25.6v-460.8c0-14.336-11.264-25.6-25.6-25.6H102.4z" p-id="3018"></path><path d="M921.6 1024h-307.2c-42.496 0-76.8-34.304-76.8-76.8v-460.8c0-42.496 34.304-76.8 76.8-76.8h307.2c42.496 0 76.8 34.304 76.8 76.8v460.8c0 42.496-34.304 76.8-76.8 76.8zM614.4 460.8c-14.336 0-25.6 11.264-25.6 25.6v460.8c0 14.336 11.264 25.6 25.6 25.6h307.2c14.336 0 25.6-11.264 25.6-25.6v-460.8c0-14.336-11.264-25.6-25.6-25.6h-307.2z" p-id="3019"></path><path d="M395.264 1024H116.736c-24.576 0-37.888-2.56-51.712-9.728-12.8-6.656-23.04-16.896-29.696-29.696-7.168-14.336-9.728-27.136-9.728-51.712v-176.128c0-24.576 2.56-37.888 9.728-51.712 6.656-12.8 16.896-23.04 29.696-29.696 14.336-7.168 27.136-9.728 51.712-9.728h278.528c24.576 0 37.888 2.56 51.712 9.728 12.8 6.656 23.04 16.896 29.696 29.696 7.168 13.824 9.728 26.624 9.728 51.712v176.128c0 24.576-2.56 37.888-9.728 51.712-6.656 12.8-16.896 23.04-29.696 29.696-14.336 7.168-27.136 9.728-51.712 9.728z m-278.528-307.2c-19.968 0-24.064 2.048-27.648 4.096-4.096 2.048-6.656 5.12-8.704 8.704-2.048 3.584-4.096 7.168-4.096 27.648v176.128c0 19.968 2.048 24.064 4.096 27.648 2.048 4.096 5.12 6.656 8.704 8.704 3.584 1.024 7.68 3.072 27.648 3.072h278.528c19.968 0 24.064-2.048 27.648-4.096 4.096-2.048 6.656-5.12 8.704-8.704 2.048-3.584 4.096-7.168 4.096-27.648v-176.128c0-19.968-2.048-24.064-4.096-27.648a20.3776 20.3776 0 0 0-8.704-8.704c-3.584-1.024-7.68-3.072-27.648-3.072H116.736z" p-id="3020"></path><path d="M907.264 358.4h-278.528c-24.576 0-37.888-2.56-51.712-9.728-12.8-6.656-23.04-16.896-29.696-29.696-7.168-14.336-9.728-27.136-9.728-51.712V91.136c0-24.576 2.56-37.888 9.728-51.712 6.656-12.8 16.896-23.04 29.696-29.696 13.824-7.168 27.136-9.728 51.712-9.728h278.528c24.576 0 37.888 2.56 51.712 9.728 12.8 6.656 23.04 16.896 29.696 29.696 7.168 13.824 9.728 26.624 9.728 51.712v176.128c0 24.576-2.56 37.888-9.728 51.712-6.656 12.8-16.896 23.04-29.696 29.696-13.824 7.168-27.136 9.728-51.712 9.728z m-278.528-307.2c-20.48 0-24.064 2.048-27.136 3.584-4.096 2.048-6.656 5.12-8.704 8.704-2.048 3.584-4.096 7.168-4.096 27.136v176.128c0 19.968 2.048 24.064 4.096 27.136 2.048 4.096 5.12 6.656 8.704 8.704 3.072 2.56 7.168 4.608 27.136 4.608h278.528c20.48 0 24.064-2.048 27.136-3.584 4.096-2.048 6.656-5.12 8.704-8.704 2.048-3.584 4.096-7.168 4.096-27.136V91.136c0-19.968-2.048-24.064-4.096-27.136a20.3776 20.3776 0 0 0-8.704-8.704c-3.072-2.048-7.168-4.096-27.136-4.096h-278.528z" p-id="3021"></path></svg>