<?xml version="1.0" standalone="no"?><!DOCTYPE svg PUBLIC "-//W3C//DTD SVG 1.1//EN" "http://www.w3.org/Graphics/SVG/1.1/DTD/svg11.dtd"><svg t="1548388081215" class="icon" style="" viewBox="0 0 1024 1024" version="1.1" xmlns="http://www.w3.org/2000/svg" p-id="2235" xmlns:xlink="http://www.w3.org/1999/xlink" width="200" height="200"><defs><style type="text/css"></style></defs><path d="M409.6 537.6H153.6c-42.496 0-76.8-34.304-76.8-76.8V204.8c0-42.496 34.304-76.8 76.8-76.8h256c42.496 0 76.8 34.304 76.8 76.8v256c0 42.496-34.304 76.8-76.8 76.8z m-256-358.4c-14.336 0-25.6 11.264-25.6 25.6v256c0 14.336 11.264 25.6 25.6 25.6h256c14.336 0 25.6-11.264 25.6-25.6V204.8c0-14.336-11.264-25.6-25.6-25.6H153.6z" p-id="2236"></path><path d="M409.6 998.4H153.6c-42.496 0-76.8-34.304-76.8-76.8v-256c0-42.496 34.304-76.8 76.8-76.8h256c42.496 0 76.8 34.304 76.8 76.8v256c0 42.496-34.304 76.8-76.8 76.8z m-256-358.4c-14.336 0-25.6 11.264-25.6 25.6v256c0 14.336 11.264 25.6 25.6 25.6h256c14.336 0 25.6-11.264 25.6-25.6v-256c0-14.336-11.264-25.6-25.6-25.6H153.6z" p-id="2237"></path><path d="M870.4 998.4h-256c-42.496 0-76.8-34.304-76.8-76.8v-256c0-42.496 34.304-76.8 76.8-76.8h256c42.496 0 76.8 34.304 76.8 76.8v256c0 42.496-34.304 76.8-76.8 76.8z m-256-358.4c-14.336 0-25.6 11.264-25.6 25.6v256c0 14.336 11.264 25.6 25.6 25.6h256c14.336 0 25.6-11.264 25.6-25.6v-256c0-14.336-11.264-25.6-25.6-25.6h-256z" p-id="2238"></path><path d="M768 528.896c-19.456 0-39.424-7.68-54.272-22.528l-144.896-144.896c-29.696-29.696-29.696-78.848 0-108.544l144.896-144.896c29.696-29.696 78.848-29.696 108.544 0l144.896 144.896c29.696 29.696 29.696 78.848 0 108.544l-144.896 144.896c-14.848 14.848-34.816 22.528-54.272 22.528z m0-392.192a24.064 24.064 0 0 0-17.92 7.68l-144.896 144.896c-10.24 9.728-10.24 26.112 0 36.352l144.896 144.896c10.24 10.24 26.112 10.24 36.352 0l144.896-144.896c10.24-9.728 10.24-26.112 0-36.352l-144.896-144.896c-5.12-5.12-11.776-7.68-18.432-7.68z" p-id="2239"></path></svg>