<?xml version="1.0" standalone="no"?><!DOCTYPE svg PUBLIC "-//W3C//DTD SVG 1.1//EN" "http://www.w3.org/Graphics/SVG/1.1/DTD/svg11.dtd"><svg t="1548388090026" class="icon" style="" viewBox="0 0 1024 1024" version="1.1" xmlns="http://www.w3.org/2000/svg" p-id="2493" xmlns:xlink="http://www.w3.org/1999/xlink" width="200" height="200"><defs><style type="text/css"></style></defs><path d="M921.6 998.4H102.4c-42.496 0-76.8-34.304-76.8-76.8V460.8c0-42.496 34.304-76.8 76.8-76.8h819.2c42.496 0 76.8 34.304 76.8 76.8v460.8c0 42.496-34.304 76.8-76.8 76.8zM102.4 435.2c-14.336 0-25.6 11.264-25.6 25.6v460.8c0 14.336 11.264 25.6 25.6 25.6h819.2c14.336 0 25.6-11.264 25.6-25.6V460.8c0-14.336-11.264-25.6-25.6-25.6H102.4z" p-id="2494"></path><path d="M896 435.2h-768V307.2c0-42.496 34.304-76.8 76.8-76.8h614.4c42.496 0 76.8 34.304 76.8 76.8v128z m-716.8-51.2h665.6V307.2c0-14.336-11.264-25.6-25.6-25.6H204.8c-14.336 0-25.6 11.264-25.6 25.6v76.8z" p-id="2495"></path><path d="M793.6 281.6h-563.2V169.472C230.4 132.608 264.704 102.4 307.2 102.4h409.6c42.496 0 76.8 30.208 76.8 67.072V281.6z m-512-45.056h460.8V169.472c0-12.288-11.264-22.528-25.6-22.528H307.2c-14.336 0-25.6 10.24-25.6 22.528v67.072z" p-id="2496"></path><path d="M505.344 681.984c-8.192 0-16.384-4.096-21.504-11.264l-89.088-135.168a25.4976 25.4976 0 0 1 42.496-28.16l89.088 135.168c7.68 11.776 4.608 27.648-7.168 35.328-4.096 2.56-8.704 4.096-13.824 4.096z" p-id="2497"></path><path d="M518.656 681.984a27.136 27.136 0 0 1-13.824-4.096 25.4976 25.4976 0 0 1-7.168-35.328l89.088-135.168a25.4976 25.4976 0 0 1 42.496 28.16l-89.088 135.168c-5.12 7.168-13.312 11.264-21.504 11.264z" p-id="2498"></path><path d="M665.6 716.8H358.4c-14.336 0-25.6-11.264-25.6-25.6s11.264-25.6 25.6-25.6h307.2c14.336 0 25.6 11.264 25.6 25.6s-11.264 25.6-25.6 25.6z" p-id="2499"></path><path d="M665.6 819.2H358.4c-14.336 0-25.6-11.264-25.6-25.6s11.264-25.6 25.6-25.6h307.2c14.336 0 25.6 11.264 25.6 25.6s-11.264 25.6-25.6 25.6z" p-id="2500"></path><path d="M512 921.6c-14.336 0-25.6-11.264-25.6-25.6v-204.8c0-14.336 11.264-25.6 25.6-25.6s25.6 11.264 25.6 25.6v204.8c0 14.336-11.264 25.6-25.6 25.6z" p-id="2501"></path></svg>