<?xml version="1.0" standalone="no"?><!DOCTYPE svg PUBLIC "-//W3C//DTD SVG 1.1//EN" "http://www.w3.org/Graphics/SVG/1.1/DTD/svg11.dtd"><svg t="1539856997035" class="icon" style="" viewBox="0 0 1024 1024" version="1.1" xmlns="http://www.w3.org/2000/svg" p-id="16768" xmlns:xlink="http://www.w3.org/1999/xlink" width="128" height="128"><defs><style type="text/css"></style></defs><path d="M480 64C215.04 64 0 279.04 0 544S215.04 1024 480 1024c264.96 0 480-215.04 480-480S744.96 64 480 64zM480 960C250.24 960 64 773.76 64 544S250.24 128 480 128C709.76 128 896 314.24 896 544S709.76 960 480 960zM696.96 307.2c12.16-12.16 12.16-32 0-44.16-12.16-12.16-32-12.16-44.16 0L479.36 436.48 307.84 264.96c-12.16-12.16-31.36-12.16-42.88 0-12.16 12.16-12.16 31.36 0 42.88L448 490.88 448 512 288 512C270.08 512 256 526.08 256 544S270.08 576 288 576L448 576l0 128L288 704C270.08 704 256 718.08 256 736 256 753.92 270.08 768 288 768L448 768l0 96C448 881.92 462.08 896 480 896 497.92 896 512 881.92 512 864L512 768l160 0c17.92 0 32-14.08 32-32 0-17.92-14.08-32-32-32L512 704 512 576l160 0C689.92 576 704 561.92 704 544S689.92 512 672 512L512 512 512 492.16 696.96 307.2z" p-id="16769"></path></svg>