<?xml version="1.0" standalone="no"?><!DOCTYPE svg PUBLIC "-//W3C//DTD SVG 1.1//EN" "http://www.w3.org/Graphics/SVG/1.1/DTD/svg11.dtd"><svg t="1548387797864" class="icon" style="" viewBox="0 0 1024 1024" version="1.1" xmlns="http://www.w3.org/2000/svg" p-id="794" xmlns:xlink="http://www.w3.org/1999/xlink" width="200" height="200"><defs><style type="text/css"></style></defs><path d="M921.6 998.4H102.4c-42.496 0-76.8-34.304-76.8-76.8V307.2c0-42.496 34.304-76.8 76.8-76.8h819.2c42.496 0 76.8 34.304 76.8 76.8v614.4c0 42.496-34.304 76.8-76.8 76.8zM102.4 281.6c-14.336 0-25.6 11.264-25.6 25.6v614.4c0 14.336 11.264 25.6 25.6 25.6h819.2c14.336 0 25.6-11.264 25.6-25.6V307.2c0-14.336-11.264-25.6-25.6-25.6H102.4z" p-id="795"></path><path d="M998.4 793.6H614.4c-42.496 0-76.8-34.304-76.8-76.8v-204.8c0-42.496 34.304-76.8 76.8-76.8h384v358.4z m-384-307.2c-14.336 0-25.6 11.264-25.6 25.6v204.8c0 14.336 11.264 25.6 25.6 25.6h332.8v-256H614.4z" p-id="796"></path><path d="M76.8 409.6h-51.2V155.136c0-43.008 34.304-78.336 76.8-78.336h614.4c42.496 0 76.8 35.328 76.8 78.336V256h-51.2V155.136c0-14.848-11.264-27.136-25.6-27.136H102.4c-14.336 0-25.6 12.288-25.6 27.136V409.6z" p-id="797"></path><path d="M128 924.16c-14.336 0-25.6-11.264-25.6-25.6V384c0-14.336 11.264-25.6 25.6-25.6s25.6 11.264 25.6 25.6v514.56c0 14.336-11.264 25.6-25.6 25.6z" p-id="798"></path><path d="M819.2 691.2c-42.496 0-76.8-34.304-76.8-76.8s34.304-76.8 76.8-76.8 76.8 34.304 76.8 76.8-34.304 76.8-76.8 76.8z m0-102.4c-14.336 0-25.6 11.264-25.6 25.6s11.264 25.6 25.6 25.6 25.6-11.264 25.6-25.6-11.264-25.6-25.6-25.6z" p-id="799"></path></svg>