<?xml version="1.0" standalone="no"?><!DOCTYPE svg PUBLIC "-//W3C//DTD SVG 1.1//EN" "http://www.w3.org/Graphics/SVG/1.1/DTD/svg11.dtd"><svg t="1548388085789" class="icon" style="" viewBox="0 0 1024 1024" version="1.1" xmlns="http://www.w3.org/2000/svg" p-id="2365" xmlns:xlink="http://www.w3.org/1999/xlink" width="200" height="200"><defs><style type="text/css"></style></defs><path d="M870.4 998.4l-716.8-1.024c-42.496 0-76.8-34.304-76.8-76.8V387.072c0-24.064 11.264-46.592 30.208-61.44l358.4-271.872c27.136-20.992 65.536-20.992 92.672 0l358.4 271.872c18.944 14.336 30.208 37.376 30.208 61.44V921.6c0.512 42.496-33.792 76.8-76.288 76.8zM138.24 366.592c-6.656 5.12-10.24 12.288-10.24 20.48v533.504c0 14.336 11.264 25.6 25.6 25.6l716.8 0.512c14.336 0 25.6-11.264 25.6-25.6V387.072c0-8.192-3.584-15.36-10.24-20.48l-358.4-271.872a26.112 26.112 0 0 0-30.72 0l-358.4 271.872z" p-id="2366"></path><path d="M691.2 974.848h-51.2V768a128 128 0 0 0-256 0v206.848h-51.2V768c0-98.816 80.384-179.2 179.2-179.2s179.2 80.384 179.2 179.2v206.848z" p-id="2367"></path></svg>