<?xml version="1.0" standalone="no"?><!DOCTYPE svg PUBLIC "-//W3C//DTD SVG 1.1//EN" "http://www.w3.org/Graphics/SVG/1.1/DTD/svg11.dtd"><svg t="1552296852250" class="icon" style="" viewBox="0 0 1024 1024" version="1.1" xmlns="http://www.w3.org/2000/svg" p-id="855" xmlns:xlink="http://www.w3.org/1999/xlink" width="200" height="200"><defs><style type="text/css"></style></defs><path d="M204.8 947.2a128 128 0 0 1 0-256 128 128 0 0 1 0 256z m0-204.8c-42.496 0-76.8 34.304-76.8 76.8s34.304 76.8 76.8 76.8 76.8-34.304 76.8-76.8-34.304-76.8-76.8-76.8z" p-id="856"></path><path d="M819.2 947.2a128 128 0 0 1 0-256 128 128 0 0 1 0 256z m0-204.8c-42.496 0-76.8 34.304-76.8 76.8s34.304 76.8 76.8 76.8 76.8-34.304 76.8-76.8-34.304-76.8-76.8-76.8zM896 537.6h-153.6v-153.6c0-14.336 11.264-25.6 25.6-25.6s25.6 11.264 25.6 25.6v102.4h102.4c14.336 0 25.6 11.264 25.6 25.6s-11.264 25.6-25.6 25.6z" p-id="857"></path><path d="M614.4 844.8H307.2c-14.336 0-25.6-11.264-25.6-25.6s11.264-25.6 25.6-25.6h281.6V204.8c0-14.336-11.264-25.6-25.6-25.6H102.4c-14.336 0-25.6 11.264-25.6 25.6v588.8H102.4c14.336 0 25.6 11.264 25.6 25.6s-11.264 25.6-25.6 25.6H51.2c-14.336 0-25.6-11.264-25.6-25.6V204.8c0-42.496 34.304-76.8 76.8-76.8h460.8c42.496 0 76.8 34.304 76.8 76.8v614.4c0 14.336-11.264 25.6-25.6 25.6z" p-id="858"></path><path d="M972.8 844.8h-51.2c-14.336 0-25.6-11.264-25.6-25.6s11.264-25.6 25.6-25.6h25.6v-271.872L781.824 332.8H640v460.8H716.8c14.336 0 25.6 11.264 25.6 25.6s-11.264 25.6-25.6 25.6h-102.4c-14.336 0-25.6-11.264-25.6-25.6V307.2c0-14.336 11.264-25.6 25.6-25.6h179.2c7.168 0 14.336 3.072 19.456 8.704l179.2 204.8c4.096 4.608 6.144 10.752 6.144 16.896v307.2c0 14.336-11.264 25.6-25.6 25.6z" p-id="859"></path></svg>