<?xml version="1.0" standalone="no"?><!DOCTYPE svg PUBLIC "-//W3C//DTD SVG 1.1//EN" "http://www.w3.org/Graphics/SVG/1.1/DTD/svg11.dtd"><svg t="1548388098069" class="icon" style="" viewBox="0 0 1024 1024" version="1.1" xmlns="http://www.w3.org/2000/svg" p-id="2627" xmlns:xlink="http://www.w3.org/1999/xlink" width="200" height="200"><defs><style type="text/css"></style></defs><path d="M819.2 588.8c-64.512 0-121.856-33.792-153.6-86.528a178.6368 178.6368 0 0 1-153.6 86.528 179.712 179.712 0 0 1-153.6-86.528A179.4048 179.4048 0 0 1 25.6 409.6c0-61.44 52.224-184.832 68.608-221.184C165.888 25.6 190.976 25.6 204.8 25.6h614.4c13.824 0 38.912 0 111.104 162.816 15.872 36.352 68.096 159.744 68.096 221.184 0 98.816-80.384 179.2-179.2 179.2z m-153.6-181.76c12.8 0 25.088 10.752 27.136 23.552 10.24 61.952 63.488 107.008 126.464 107.008A128 128 0 0 0 947.2 409.6c0-70.656-101.376-297.984-134.656-332.8H211.968C178.176 111.616 76.8 338.944 76.8 409.6a128 128 0 0 0 253.952 23.04C332.8 420.864 346.112 409.6 358.4 409.6c12.288 0 25.6 11.264 27.648 23.04A127.8976 127.8976 0 0 0 512 537.6c62.976 0 116.224-45.056 126.464-107.008 2.048-12.288 14.336-23.552 27.136-23.552z" p-id="2628"></path><path d="M819.2 998.4H204.8c-42.496 0-76.8-34.304-76.8-76.8v-358.4h51.2v358.4c0 14.336 11.264 25.6 25.6 25.6h614.4c14.336 0 25.6-11.264 25.6-25.6v-358.4h51.2v358.4c0 42.496-34.304 76.8-76.8 76.8z" p-id="2629"></path><path d="M691.2 153.6H358.4c-14.336 0-25.6-11.264-25.6-25.6S344.064 102.4 358.4 102.4h332.8c14.336 0 25.6 11.264 25.6 25.6s-11.264 25.6-25.6 25.6z" p-id="2630"></path></svg>