<?xml version="1.0" standalone="no"?><!DOCTYPE svg PUBLIC "-//W3C//DTD SVG 1.1//EN" "http://www.w3.org/Graphics/SVG/1.1/DTD/svg11.dtd"><svg t="1548388110375" class="icon" style="" viewBox="0 0 1024 1024" version="1.1" xmlns="http://www.w3.org/2000/svg" p-id="2886" xmlns:xlink="http://www.w3.org/1999/xlink" width="200" height="200"><defs><style type="text/css"></style></defs><path d="M921.6 794.624H247.296L172.032 124.416H40.96c-14.336 0-25.6-11.264-25.6-25.6s11.264-25.6 25.6-25.6h177.152l75.264 670.208H921.6c14.336 0 25.6 11.264 25.6 25.6s-11.264 25.6-25.6 25.6z" p-id="2887"></path><path d="M825.856 691.2H260.608v-51.2h565.248c14.848 0 27.648-12.288 29.696-28.16l39.936-292.352c0.512-23.04-13.312-37.888-29.696-37.888H204.8v-51.2h660.992c45.056 0 81.408 37.888 81.408 83.968 0 3.584 0 7.68-0.512 11.264l-39.936 292.864c-5.632 41.472-40.448 72.704-80.896 72.704z" p-id="2888"></path><path d="M409.6 998.4c-42.496 0-76.8-34.304-76.8-76.8s34.304-76.8 76.8-76.8 76.8 34.304 76.8 76.8-34.304 76.8-76.8 76.8z m0-102.4c-14.336 0-25.6 11.264-25.6 25.6s11.264 25.6 25.6 25.6 25.6-11.264 25.6-25.6-11.264-25.6-25.6-25.6z" p-id="2889"></path><path d="M768 998.4c-42.496 0-76.8-34.304-76.8-76.8s34.304-76.8 76.8-76.8 76.8 34.304 76.8 76.8-34.304 76.8-76.8 76.8z m0-102.4c-14.336 0-25.6 11.264-25.6 25.6s11.264 25.6 25.6 25.6 25.6-11.264 25.6-25.6-11.264-25.6-25.6-25.6z" p-id="2890"></path><path d="M230.4 358.4H921.6v51.2H230.4z" p-id="2891"></path></svg>