<?xml version="1.0" encoding="UTF-8"?>
<svg width="14px" height="14px" viewBox="0 0 14 14" version="1.1" xmlns="http://www.w3.org/2000/svg" xmlns:xlink="http://www.w3.org/1999/xlink">
    <!-- Generator: Sketch 61.1 (89650) - https://sketch.com -->
    <title>店铺备份 4 copy 2</title>
    <desc>Created with Sketch.</desc>
    <g id="Page-1" stroke="none" stroke-width="1" fill="none" fill-rule="evenodd">
        <g id="Ant-Design-Template备份" transform="translate(-3014.000000, -3347.000000)" fill="currentColor" fill-rule="nonzero">
            <g id="分组-5" transform="translate(1849.000000, 3314.000000)">
                <g id="分组-6" transform="translate(1165.000000, 30.000000)">
                    <g id="店铺备份-4-copy-2" transform="translate(0.000000, 3.000000)">
                        <g id="编组-3">
                            <path d="M2.06277326,5.4849387 C2.25600924,5.6665326 2.51612438,5.77777778 2.80222222,5.77777778 L2.80222222,5.77777778 L2.92877451,5.77704698 L2.92944117,10.5015454 C2.92944117,11.2195156 3.511471,11.8015454 4.22944117,11.8015454 L10.7294412,11.8015454 C11.4474113,11.8015454 12.0294412,11.2195156 12.0294412,10.5015454 L12.0287745,5.77704698 L12.1977778,5.77777778 C12.4645698,5.77777778 12.7087675,5.68103961 12.8972072,5.52072681 L12.8961078,10.5015454 C12.8961078,11.6981624 11.9260581,12.6682121 10.7294412,12.6682121 L4.22944117,12.6682121 C3.03282421,12.6682121 2.06277451,11.6981624 2.06277451,10.5015454 Z" id="形状结合"></path>
                            <path d="M5.30909665,0.390434318 L9.64242998,0.390434318 L10.6612639,0.390434318 C11.3792224,0.390434318 12.0505573,0.746086726 12.4538351,1.34008292 L13.6559212,3.11066052 C14.1943795,3.90376701 13.9879464,4.9832136 13.1948399,5.52167195 C12.9697127,5.67451606 12.7118038,5.77228964 12.4419302,5.80710098 L12.0862813,5.85297659 C11.1955172,5.96787738 10.3614299,5.52445797 9.93602568,4.79428876 C9.42726813,5.61874066 8.51568369,6.1682121 7.47576332,6.1682121 C6.43566697,6.1682121 5.52394999,5.61855468 5.01524271,4.79387019 C4.63964746,5.43769637 3.94156232,5.8703308 3.14242998,5.8703308 C3.04961872,5.8703308 2.95690335,5.86436732 2.86485687,5.85247721 L2.51357997,5.80710098 C1.56284695,5.68428996 0.891683557,4.81401057 1.01449458,3.86327754 C1.0492604,3.59414032 1.14664685,3.33690395 1.298835,3.11222135 L2.49787694,1.34201866 C2.90097752,0.746902088 3.57297448,0.390434318 4.29176082,0.390434318 L5.30909665,0.390434318 Z M4.29176082,1.25710098 C3.86048902,1.25710098 3.45729084,1.47098165 3.21543049,1.82805159 L2.01638855,3.59825428 C1.94018822,3.71075246 1.89142699,3.83955026 1.87401981,3.97430679 C1.81252854,4.45033714 2.14857887,4.88608449 2.62460922,4.94757576 L2.97588611,4.99295198 C3.03111401,5.00008605 3.08674323,5.00366414 3.14242998,5.00366414 C3.6106803,5.00366414 4.03468557,4.75477667 4.26664951,4.35715596 C4.59633636,3.79202362 5.40937074,3.78201932 5.75286345,4.33886826 C6.11936805,4.93302264 6.76528637,5.30154543 7.47576332,5.30154543 C8.18611819,5.30154543 8.83193987,4.93315086 9.1984824,4.33916129 C9.54215083,3.78223964 10.3554297,3.79254972 10.6848695,4.35800447 C10.9460749,4.8063406 11.4519348,5.06095471 11.9754074,4.9934313 L12.3310563,4.9475557 C12.4661801,4.93012591 12.5953131,4.8811714 12.7080327,4.80464347 C13.1051353,4.53504133 13.2084948,3.99457035 12.9388927,3.59746775 L11.7368066,1.82689014 C11.4948399,1.47049243 11.092039,1.25710098 10.6612639,1.25710098 L4.29176082,1.25710098 Z" id="形状结合"></path>
                        </g>
                    </g>
                </g>
            </g>
        </g>
    </g>
</svg>