<?xml version="1.0" standalone="no"?><!DOCTYPE svg PUBLIC "-//W3C//DTD SVG 1.1//EN" "http://www.w3.org/Graphics/SVG/1.1/DTD/svg11.dtd"><svg t="1547627579171" class="icon" style="" viewBox="0 0 1024 1024" version="1.1" xmlns="http://www.w3.org/2000/svg" p-id="1462" xmlns:xlink="http://www.w3.org/1999/xlink" width="200" height="200"><defs><style type="text/css"></style></defs><path d="M307.2 691.2c-7.168 0-14.336-3.072-19.456-9.216a25.2416 25.2416 0 0 1 3.072-35.84l187.392-157.696 124.416 71.68 141.824-166.4c9.216-10.752 25.088-12.288 36.352-3.072 10.752 9.216 12.288 25.088 3.072 36.352L614.4 626.176l-130.048-74.752-159.744 134.656c-5.632 3.072-11.776 5.12-17.408 5.12z" p-id="1463"></path><path d="M553.472 991.232l-12.8-7.68c-214.528-130.048-340.992-242.176-375.808-333.312-29.184-76.288-40.96-230.912-35.84-458.752l0.512-23.552 23.552-1.536c52.736-3.072 113.152-15.872 175.616-35.84C399.36 107.52 465.408 77.312 519.168 43.008l14.848-9.728 14.336 10.752c53.76 39.936 134.144 74.24 221.184 93.696 51.2 11.264 102.912 16.896 150.528 16.896h25.088l0.512 25.088c5.12 220.16-7.168 379.392-35.84 472.576-33.792 108.544-148.992 220.16-343.552 331.776l-12.8 7.168zM179.712 216.064c-4.608 259.072 15.36 369.664 32.768 416.256 16.896 44.544 83.456 141.824 341.504 299.52 175.104-102.4 278.016-201.728 307.2-294.912 26.112-84.48 37.376-229.376 34.304-431.616-44.032-1.536-91.136-7.68-136.704-17.92-87.552-19.456-167.424-52.224-226.304-92.16-54.784 32.768-119.296 61.952-187.904 83.968-57.344 18.432-113.664 31.232-164.864 36.864z" p-id="1464"></path><path d="M798.208 563.2L614.4 379.392h183.808z" p-id="1465"></path></svg>