<?xml version="1.0" encoding="utf-8"?>
<!-- Generator: Adobe Illustrator 21.0.0, SVG Export Plug-In . SVG Version: 6.00 Build 0)  -->
<svg version="1.1" id="图层_1" xmlns="http://www.w3.org/2000/svg" xmlns:xlink="http://www.w3.org/1999/xlink" x="0px" y="0px"
	 viewBox="0 0 77 77" style="enable-background:new 0 0 77 77;" xml:space="preserve">
<style type="text/css">
	.st0{clip-path:url(#SVGID_2_);}
	.st1{clip-path:url(#SVGID_4_);fill:none;stroke:#CEE5FF;stroke-width:4;stroke-linecap:round;stroke-miterlimit:10;}
	.st2{clip-path:url(#SVGID_6_);}
	.st3{clip-path:url(#SVGID_8_);fill:none;stroke:#CEE5FF;stroke-width:4;stroke-miterlimit:10;}
	.st4{clip-path:url(#SVGID_10_);}
	.st5{clip-path:url(#SVGID_12_);fill:none;stroke:#3782D3;stroke-width:4;stroke-miterlimit:10;}
	.st6{clip-path:url(#SVGID_14_);}
	.st7{clip-path:url(#SVGID_16_);fill:#CEE5FF;}
	.st8{clip-path:url(#SVGID_18_);}
	.st9{clip-path:url(#SVGID_20_);fill:none;stroke:#3782D3;stroke-width:4;stroke-miterlimit:10;}
	.st10{clip-path:url(#SVGID_22_);}
	.st11{clip-path:url(#SVGID_24_);fill:none;stroke:#3782D3;stroke-width:4;stroke-linecap:round;stroke-miterlimit:10;}
</style>
<g>
	<defs>
		<path id="SVGID_1_" d="M48,10.5l6.7-7.2c1.6-1.6,4.1-1.6,5.7,0l14.9,14.9c1.6,1.6,1.6,4.1,0,5.7L67.5,32"/>
	</defs>
	<clipPath id="SVGID_2_">
		<use xlink:href="#SVGID_1_"  style="overflow:visible;"/>
	</clipPath>
	<g class="st0">
		<defs>
			<rect id="SVGID_3_" x="-20" y="-19" width="117" height="117"/>
		</defs>
		<clipPath id="SVGID_4_">
			<use xlink:href="#SVGID_3_"  style="overflow:visible;"/>
		</clipPath>
		<path class="st1" d="M48,10.5l6.7-7.2c1.6-1.6,4.1-1.6,5.7,0l14.9,14.9c1.6,1.6,1.6,4.1,0,5.7L67.5,32"/>
	</g>
</g>
<g>
	<defs>
		<path id="SVGID_5_" d="M25.3,20.7c-1.1-2.4-1-1.7-3.1-6.5c-0.9-2-3.1-3-4.9-2.2L2.3,18.7c-1.8,0.8-2.6,3.1-1.7,5.1l3.2,8.4"/>
	</defs>
	<clipPath id="SVGID_6_">
		<use xlink:href="#SVGID_5_"  style="overflow:visible;"/>
	</clipPath>
	<g class="st2">
		<defs>
			<rect id="SVGID_7_" x="-20" y="-19" width="117" height="117"/>
		</defs>
		<clipPath id="SVGID_8_">
			<use xlink:href="#SVGID_7_"  style="overflow:visible;"/>
		</clipPath>
		<path class="st3" d="M25.3,20.7c-1.1-2.4-1-1.7-3.1-6.5c-0.9-2-3.1-3-4.9-2.2L2.3,18.7c-1.8,0.8-2.6,3.1-1.7,5.1l3.2,8.4"/>
	</g>
</g>
<g>
	<defs>
		<path id="SVGID_9_" d="M4.5,30.5h63.8c2.2,0,4,1.8,4,4c0,0.3,0,0.6-0.1,0.9l-8.6,36c-0.4,1.8-2,3.1-3.9,3.1H13.5
			c-1.8,0-3.4-1.2-3.9-3l-9-36c-0.5-2.1,0.8-4.3,2.9-4.9C3.9,30.5,4.2,30.5,4.5,30.5z"/>
	</defs>
	<clipPath id="SVGID_10_">
		<use xlink:href="#SVGID_9_"  style="overflow:visible;"/>
	</clipPath>
	<g class="st4">
		<defs>
			<rect id="SVGID_11_" x="-20" y="-19" width="117" height="117"/>
		</defs>
		<clipPath id="SVGID_12_">
			<use xlink:href="#SVGID_11_"  style="overflow:visible;"/>
		</clipPath>
		<path class="st5" d="M4.5,30.5h63.8c2.2,0,4,1.8,4,4c0,0.3,0,0.6-0.1,0.9l-8.6,36c-0.4,1.8-2,3.1-3.9,3.1H13.5
			c-1.8,0-3.4-1.2-3.9-3l-9-36c-0.5-2.1,0.8-4.3,2.9-4.9C3.9,30.5,4.2,30.5,4.5,30.5z"/>
	</g>
</g>
<g>
	<defs>
		<path id="SVGID_13_" d="M26,38h22c1.1,0,2,0.9,2,2s-0.9,2-2,2H26c-1.1,0-2-0.9-2-2S24.9,38,26,38z"/>
	</defs>
	<clipPath id="SVGID_14_">
		<use xlink:href="#SVGID_13_"  style="overflow:visible;"/>
	</clipPath>
	<g class="st6">
		<defs>
			<rect id="SVGID_15_" x="-20" y="-19" width="117" height="117"/>
		</defs>
		<clipPath id="SVGID_16_">
			<use xlink:href="#SVGID_15_"  style="overflow:visible;"/>
		</clipPath>
		<rect x="19" y="33" class="st7" width="36" height="14"/>
	</g>
</g>
<g>
	<defs>
		<path id="SVGID_17_" d="M36.5,31c0-5.8-4.7-10.5-10.5-10.5S15.5,25.2,15.5,31"/>
	</defs>
	<clipPath id="SVGID_18_">
		<use xlink:href="#SVGID_17_"  style="overflow:visible;"/>
	</clipPath>
	<g class="st8">
		<defs>
			<rect id="SVGID_19_" x="-20" y="-19" width="117" height="117"/>
		</defs>
		<clipPath id="SVGID_20_">
			<use xlink:href="#SVGID_19_"  style="overflow:visible;"/>
		</clipPath>
		<path class="st9" d="M36.5,31c0-5.8-4.7-10.5-10.5-10.5S15.5,25.2,15.5,31"/>
	</g>
</g>
<g>
	<defs>
		<path id="SVGID_21_" d="M30.5,23c0.7-2.5,2.3-8.1,3.6-13.1C34.7,7.7,36.9,6.5,39,7l17.4,4.7c2.1,0.6,3.4,2.8,2.8,4.9l-4,15.4"/>
	</defs>
	<clipPath id="SVGID_22_">
		<use xlink:href="#SVGID_21_"  style="overflow:visible;"/>
	</clipPath>
	<g class="st10">
		<defs>
			<rect id="SVGID_23_" x="-20" y="-19" width="117" height="117"/>
		</defs>
		<clipPath id="SVGID_24_">
			<use xlink:href="#SVGID_23_"  style="overflow:visible;"/>
		</clipPath>
		<path class="st11" d="M30.5,23c0.7-2.5,2.3-8.1,3.6-13.1C34.7,7.7,36.9,6.5,39,7l17.4,4.7c2.1,0.6,3.4,2.8,2.8,4.9l-4,15.4"/>
	</g>
</g>
</svg>
