<?xml version="1.0" encoding="utf-8"?>
<!-- Generator: Adobe Illustrator 22.0.1, SVG Export Plug-In . SVG Version: 6.00 Build 0)  -->
<svg version="1.1" id="图层_1" xmlns="http://www.w3.org/2000/svg" xmlns:xlink="http://www.w3.org/1999/xlink" x="0px" y="0px"
	 viewBox="0 0 1024 1024" style="enable-background:new 0 0 1024 1024;" xml:space="preserve">
<g>
	<path d="M587,412.9l53.2-53.2c15.1-15.1,15.1-39.5,0-54.5c-15.1-15.1-39.5-15.1-54.5,0l-53.2,53.2c-15.1,15.1-15.1,39.5,0,54.6
		C547.5,427.9,572,427.9,587,412.9z"/>
	<path d="M419.8,412.9c15.1,15.1,39.5,15.1,54.6,0c15.1-15.1,15.1-39.5,0-54.5l-53.2-53.2c-15.1-15.1-39.5-15.1-54.6,0
		c-15.1,15.1-15.1,39.5,0,54.6L419.8,412.9z"/>
	<path d="M504.1,93.9C273.2,93.9,86,281.1,86,512s187.2,418.1,418.1,418.1S922.2,742.9,922.2,512S735,93.9,504.1,93.9z M503.4,851.1
		C316,851.1,164,699.2,164,511.8s151.9-339.3,339.3-339.3s339.3,151.9,339.3,339.3C842.7,699.2,690.8,851.1,503.4,851.1z"/>
	<path d="M626.1,518.2c21.9,0,39.7-17,39.7-38s-17.8-38-39.7-38H379.7c-21.9,0-39.7,17-39.7,38s17.8,38,39.7,38h79.8v46.6h-79.8
		c-21.9,0-39.7,17-39.7,38s17.8,38,39.7,38h79.8v66.1c0,21.9,19.4,39.7,43.4,39.7s43.4-17.8,43.4-39.7v-66.1h79.8
		c21.9,0,39.7-17,39.7-38s-17.8-38-39.7-38h-79.8v-46.6H626.1z"/>
</g>
</svg>
