<?xml version="1.0" encoding="utf-8"?>
<!-- Generator: Adobe Illustrator 22.0.1, SVG Export Plug-In . SVG Version: 6.00 Build 0)  -->
<svg version="1.1" id="图层_1" xmlns="http://www.w3.org/2000/svg" xmlns:xlink="http://www.w3.org/1999/xlink" x="0px" y="0px"
	 viewBox="0 0 200 200" style="enable-background:new 0 0 200 200;" xml:space="preserve">
<g>
	<path d="M139.3,171.8H60.7c-3.3,0-6.8,3.6-6.8,6.8c0,3.3,3.6,6.8,6.8,6.8h78.7c3.3,0,6.8-3.6,6.8-6.8
		C146.2,175.4,142.6,171.8,139.3,171.8z"/>
	<path d="M168.8,14.5H31.2c-9.2,0-16.7,7.5-16.7,16.7v98.3c0,9.2,7.5,16.7,16.7,16.7h137.7c9.2,0,16.7-7.5,16.7-16.7V31.2
		C185.5,22,178,14.5,168.8,14.5z M171.8,31.2v98.3v3h-3h-19.7h-3v-3V80.3c0-3.3-3.6-6.8-6.8-6.8c-3.3,0-6.8,3.6-6.8,6.8v49.2v3h-3
		h-19.7h-3v-3V60.7c0-3.3-3.6-6.8-6.8-6.8s-6.8,3.6-6.8,6.8v68.8v3h-3H70.5h-3v-3V100c0-3.3-3.6-6.8-6.8-6.8c-3.3,0-6.8,3.6-6.8,6.8
		v29.5v3h-3H31.2h-3v-3V31.2v-3h3h137.7h3V31.2z"/>
</g>
</svg>
