<?xml version="1.0" encoding="utf-8"?>
<!-- Generator: Adobe Illustrator 22.0.1, SVG Export Plug-In . SVG Version: 6.00 Build 0)  -->
<svg version="1.1" id="图层_1" xmlns="http://www.w3.org/2000/svg" xmlns:xlink="http://www.w3.org/1999/xlink" x="0px" y="0px"
	 viewBox="0 0 1024 1024" style="enable-background:new 0 0 1024 1024;" xml:space="preserve">
<g>
	<path d="M282,808.6H148.5V550.7H267c5.5,0,10-4.5,10-10V475c0-5.5-4.5-10-10-10H148.5V212.4h130.6c5.5,0,10-4.5,10-10v-64.9
		c0-5.5-4.5-10-10-10H85c-5.5,0-10,4.5-10,10v746.8c0,5.5,4.5,10,10,10h197c5.5,0,10-4.5,10-10v-65.7
		C292,813.1,287.5,808.6,282,808.6z"/>
	<path d="M529.3,542.6c0.8,0.1,1.5,0.1,2.3,0.2c8.2,0.7,14.3,0.7,18,0.7c44.8,0,68.5-23.9,68.5-69.2V196c0-19-4.9-35.6-14.1-48
		c-10-13.6-23.1-20.5-38.7-20.5H364.8c-5.5,0-10,4.5-10,10v746.8c0,5.5,4.5,10,10,10h53.5c5.5,0,10-4.5,10-10V212.5h116.2v248.3
		h-84.9c-3.9,0-7.4,2.2-9,5.7l-7.1,15c-1,2.1-1.2,4.5-0.7,6.7l112,398.5c1.1,4.4,5.1,7.5,9.7,7.5h55.7c3.1,0,6-1.4,7.9-3.9
		c1.9-2.4,2.6-5.6,1.8-8.6C592.1,734.9,560,656.7,529.3,542.6z"/>
	<path d="M933,148c-10-13.6-23.1-20.5-38.7-20.5H699.5c-5.5,0-10,4.5-10,10v746.8c0,5.5,4.5,10,10,10H753c5.5,0,10-4.5,10-10V610
		h131.3c16,0,29.5-7.1,38.9-20.6c9.1-12.6,13.9-29.1,13.9-47.9V196C947.1,177,942.2,160.4,933,148z M763,525V212.5h110.6V525H763z"
		/>
</g>
</svg>
