<?xml version="1.0" encoding="utf-8"?>
<!-- Generator: Adobe Illustrator 21.0.0, SVG Export Plug-In . SVG Version: 6.00 Build 0)  -->
<svg version="1.1" id="图层_1" xmlns="http://www.w3.org/2000/svg" xmlns:xlink="http://www.w3.org/1999/xlink" x="0px" y="0px"
	 viewBox="0 0 77 77" style="enable-background:new 0 0 77 77;" xml:space="preserve">
<style type="text/css">
	.st0{clip-path:url(#SVGID_2_);}
	.st1{clip-path:url(#SVGID_4_);fill:none;stroke:#3782D3;stroke-width:4;stroke-miterlimit:10;}
	.st2{clip-path:url(#SVGID_6_);}
	.st3{clip-path:url(#SVGID_8_);fill:#CEE5FF;}
	.st4{clip-path:url(#SVGID_10_);}
	.st5{clip-path:url(#SVGID_12_);fill:none;stroke:#3782D3;stroke-width:4;stroke-miterlimit:10;}
	.st6{clip-path:url(#SVGID_14_);}
	.st7{clip-path:url(#SVGID_16_);fill:none;stroke:#CEE5FF;stroke-width:4;stroke-miterlimit:10;}
	.st8{clip-path:url(#SVGID_18_);}
	.st9{clip-path:url(#SVGID_20_);fill:none;stroke:#CEE5FF;stroke-width:4;stroke-miterlimit:10;}
	.st10{clip-path:url(#SVGID_22_);}
	.st11{clip-path:url(#SVGID_24_);fill:#CEE5FF;}
	.st12{clip-path:url(#SVGID_26_);}
	.st13{clip-path:url(#SVGID_28_);fill:#CEE5FF;}
	.st14{clip-path:url(#SVGID_30_);}
	.st15{clip-path:url(#SVGID_32_);fill:#CEE5FF;}
</style>
<g>
	<defs>
		<path id="SVGID_1_" d="M10.7,41h55.7c5.3,0,9.7,4.3,9.7,9.7s-4.3,9.7-9.7,9.7H10.7C5.3,60.3,1,56,1,50.6S5.3,41,10.7,41z"/>
	</defs>
	<clipPath id="SVGID_2_">
		<use xlink:href="#SVGID_1_"  style="overflow:visible;"/>
	</clipPath>
	<g class="st0">
		<defs>
			<rect id="SVGID_3_" x="-5.7" y="-6.6" width="86.9" height="86.9"/>
		</defs>
		<clipPath id="SVGID_4_">
			<use xlink:href="#SVGID_3_"  style="overflow:visible;"/>
		</clipPath>
		<path class="st1" d="M10.7,41h55.7c5.3,0,9.7,4.3,9.7,9.7s-4.3,9.7-9.7,9.7H10.7C5.3,60.3,1,56,1,50.6S5.3,41,10.7,41z"/>
	</g>
</g>
<g>
	<defs>
		<polygon id="SVGID_5_" points="29.2,17.2 36.6,17.2 36.6,26.1 32.9,24.9 29.2,26.1 		"/>
	</defs>
	<clipPath id="SVGID_6_">
		<use xlink:href="#SVGID_5_"  style="overflow:visible;"/>
	</clipPath>
	<g class="st2">
		<defs>
			<rect id="SVGID_7_" x="-5.7" y="-6.6" width="86.9" height="86.9"/>
		</defs>
		<clipPath id="SVGID_8_">
			<use xlink:href="#SVGID_7_"  style="overflow:visible;"/>
		</clipPath>
		<rect x="25.5" y="13.5" class="st3" width="14.9" height="16.3"/>
	</g>
</g>
<g>
	<defs>
		<path id="SVGID_9_" d="M22.5,15.7h20.8c1.6,0,3,1.3,3,3v23.8H19.6V18.7C19.6,17.1,20.9,15.7,22.5,15.7z"/>
	</defs>
	<clipPath id="SVGID_10_">
		<use xlink:href="#SVGID_9_"  style="overflow:visible;"/>
	</clipPath>
	<g class="st4">
		<defs>
			<rect id="SVGID_11_" x="-5.7" y="-6.6" width="86.9" height="86.9"/>
		</defs>
		<clipPath id="SVGID_12_">
			<use xlink:href="#SVGID_11_"  style="overflow:visible;"/>
		</clipPath>
		<path class="st5" d="M22.5,15.7h20.8c1.6,0,3,1.3,3,3v23.8H19.6V18.7C19.6,17.1,20.9,15.7,22.5,15.7z"/>
	</g>
</g>
<g>
	<defs>
		<circle id="SVGID_13_" cx="11.4" cy="50.6" r="6.7"/>
	</defs>
	<clipPath id="SVGID_14_">
		<use xlink:href="#SVGID_13_"  style="overflow:visible;"/>
	</clipPath>
	<g class="st6">
		<defs>
			<rect id="SVGID_15_" x="-5.7" y="-6.6" width="86.9" height="86.9"/>
		</defs>
		<clipPath id="SVGID_16_">
			<use xlink:href="#SVGID_15_"  style="overflow:visible;"/>
		</clipPath>
		<circle class="st7" cx="11.4" cy="50.6" r="6.7"/>
	</g>
</g>
<g>
	<defs>
		<circle id="SVGID_17_" cx="65.6" cy="50.6" r="6.7"/>
	</defs>
	<clipPath id="SVGID_18_">
		<use xlink:href="#SVGID_17_"  style="overflow:visible;"/>
	</clipPath>
	<g class="st8">
		<defs>
			<rect id="SVGID_19_" x="-5.7" y="-6.6" width="86.9" height="86.9"/>
		</defs>
		<clipPath id="SVGID_20_">
			<use xlink:href="#SVGID_19_"  style="overflow:visible;"/>
		</clipPath>
		<circle class="st9" cx="65.6" cy="50.6" r="6.7"/>
	</g>
</g>
<g>
	<defs>
		<rect id="SVGID_21_" x="50" y="24.6" width="7.4" height="1.5"/>
	</defs>
	<clipPath id="SVGID_22_">
		<use xlink:href="#SVGID_21_"  style="overflow:visible;"/>
	</clipPath>
	<g class="st10">
		<defs>
			<rect id="SVGID_23_" x="-5.7" y="-6.6" width="86.9" height="86.9"/>
		</defs>
		<clipPath id="SVGID_24_">
			<use xlink:href="#SVGID_23_"  style="overflow:visible;"/>
		</clipPath>
		<rect x="46.3" y="20.9" class="st11" width="14.9" height="8.9"/>
	</g>
</g>
<g>
	<defs>
		<rect id="SVGID_25_" x="53" y="28.3" width="11.1" height="1.5"/>
	</defs>
	<clipPath id="SVGID_26_">
		<use xlink:href="#SVGID_25_"  style="overflow:visible;"/>
	</clipPath>
	<g class="st12">
		<defs>
			<rect id="SVGID_27_" x="-5.7" y="-6.6" width="86.9" height="86.9"/>
		</defs>
		<clipPath id="SVGID_28_">
			<use xlink:href="#SVGID_27_"  style="overflow:visible;"/>
		</clipPath>
		<rect x="49.3" y="24.6" class="st13" width="18.6" height="8.9"/>
	</g>
</g>
<g>
	<defs>
		<rect id="SVGID_29_" x="48.5" y="32.1" width="10.4" height="1.5"/>
	</defs>
	<clipPath id="SVGID_30_">
		<use xlink:href="#SVGID_29_"  style="overflow:visible;"/>
	</clipPath>
	<g class="st14">
		<defs>
			<rect id="SVGID_31_" x="-5.7" y="-6.6" width="86.9" height="86.9"/>
		</defs>
		<clipPath id="SVGID_32_">
			<use xlink:href="#SVGID_31_"  style="overflow:visible;"/>
		</clipPath>
		<rect x="44.8" y="28.3" class="st15" width="17.8" height="8.9"/>
	</g>
</g>
</svg>
