<?xml version="1.0" encoding="utf-8"?>
<!-- Generator: Adobe Illustrator 22.0.1, SVG Export Plug-In . SVG Version: 6.00 Build 0)  -->
<svg version="1.1" id="图层_1" xmlns="http://www.w3.org/2000/svg" xmlns:xlink="http://www.w3.org/1999/xlink" x="0px" y="0px"
	 viewBox="0 0 1024 1024" style="enable-background:new 0 0 1024 1024;" xml:space="preserve">
<g>
	<path d="M673.9,601.5c-7.7-7.7-20.1-7.7-27.8,0l-83.4,83.7c-7.7,7.7-7.7,20.2,0,27.9l196.7,197.5c30.7,30.8,80.5,30.8,111.2,0
		s30.7-80.8,0-111.6L673.9,601.5z"/>
	<polygon points="218.1,311.3 354.3,448.1 409.9,392.3 273.7,255.5 243.2,197 145.9,127.2 90.3,183 159.8,280.7 	"/>
	<path d="M887.5,304.1l-43.1,43.3c-46,46.2-120.8,46.2-166.8,0s-46-121.3,0-167.4c0,0,19.3-19.4,43.1-43.3c23.8-23.9,7.9-52-35-45.4
		c-43.7,6.9-85.7,27.1-119.3,60.8C513,205.8,493.6,281,508,350.3L146.3,713.6c-46,46.1-46,121.2,0,167.4s120.8,46.2,166.7,0
		l361.8-363.2c69.1,14.5,143.9-5,197.4-58.7c33.6-33.7,53.8-75.9,60.5-119.7C939.3,296.2,911.3,280.2,887.5,304.1z M257.4,825.1
		c-15.4,15.4-40.2,15.4-55.6,0c-15.3-15.4-15.3-40.3,0-55.8c15.3-15.4,40.2-15.4,55.6,0C272.8,784.7,272.8,809.7,257.4,825.1z"/>
</g>
</svg>
