<?xml version="1.0" encoding="utf-8"?>
<!-- Generator: Adobe Illustrator 22.0.1, SVG Export Plug-In . SVG Version: 6.00 Build 0)  -->
<svg version="1.1" id="图层_1" xmlns="http://www.w3.org/2000/svg" xmlns:xlink="http://www.w3.org/1999/xlink" x="0px" y="0px"
	 viewBox="0 0 1024 1024" style="enable-background:new 0 0 1024 1024;" xml:space="preserve">
<path d="M697.4,578.1c-3.4-1.4-59.8-26.1-121.7-38.5c7.6-6.2,13.8-13.1,19.3-20.6c13.8-18.6,20.6-40.6,20.6-63.3v-17.9
	c0-34.4-16.5-66.7-44-86.7c-18.6-13.8-40.6-21.3-63.3-21.3c-59.2,0-107.3,48.1-107.3,108v17.9c0,34.4,16.5,65.3,42,85.3
	c-59.2,13-110.8,35-113.6,36.4c-17.9,6.9-31.6,27.5-31.6,46.8v46.1l1.4,2.8c5.5,17.2,21.3,28.9,39.2,28.9h350.8
	c20.6,0,37.1-15.1,39.9-35.1v-43.3c0-9.6-3.4-18.6-8.3-26.8C713.9,589.1,706.4,582.2,697.4,578.1"/>
<path d="M899.8,129.5c-20.4-20.4-47.6-31.7-76.5-31.7H204.2c-29,0-56.1,11.2-76.5,31.7S96,177,96,206v619c0,29,11.2,56.1,31.7,76.5
	s47.6,31.7,76.5,31.7h619.1c59.7,0,108.2-48.5,108.2-108.2V206C931.5,177,920.3,149.9,899.8,129.5z M852.1,206v619
	c0,16.5-12.9,29.4-29.4,29.4H203.6c-16.5,0-29.4-12.9-29.4-29.4V206c0-16.5,12.9-29.4,29.4-29.4h619.1
	C839.2,176.6,852.1,189.5,852.1,206z"/>
</svg>
