<?xml version="1.0" encoding="utf-8"?>
<!-- Generator: Adobe Illustrator 21.0.0, SVG Export Plug-In . SVG Version: 6.00 Build 0)  -->
<svg version="1.1" id="图层_1" xmlns="http://www.w3.org/2000/svg" xmlns:xlink="http://www.w3.org/1999/xlink" x="0px" y="0px"
	 viewBox="0 0 1024 1024" style="enable-background:new 0 0 1024 1024;" xml:space="preserve">
<path d="M796.8,602.8l114.3,61.4c15.6,7.9,21.2,27.6,13.3,43c-3.1,5.9-8.1,10-13.3,12.9l-382,205.1c-9.9,5.2-20.8,4.8-30,0
	L116.6,720c-15.3-7.9-20.7-27.6-12.9-42.9c3.5-5.9,8-10.4,12.9-12.9l114.3-61.4l-114.3-61.2c-15.3-7.9-20.7-27.6-12.9-42.9
	c3.5-5.7,8-10.2,12.9-12.9l114.3-61l-114.3-61.6c-15.3-7.9-20.7-27.3-12.9-42.9c3.5-5.6,8-10.2,12.9-13.1l382.6-204.6
	c9.6-5.4,20.9-5,30,0l382,204.6c15.6,8.4,21.2,27.6,13.3,43.2c-3.1,5.6-8.1,10.4-13.3,12.9l-114.3,61.6l114.3,61
	c15.6,8.2,21.2,27.4,13.3,43c-3.1,5.8-8.1,10.4-13.3,12.9L796.8,602.8L796.8,602.8z M829.1,692L829.1,692l-99.5-53.4l-200.5,108
	c-3.7,1.6-7,2.5-10.4,3.4l-0.8,0.4h-2.5h-0.6h-1.4h-0.5h-2.9l-0.6-0.4c-3.7-0.9-6.8-1.8-10.1-3.4l-201.1-108L198.9,692l315.3,168.9
	L829.1,692L829.1,692z M514.2,682.5L514.2,682.5c104.6-55.8,210.2-112.7,315-169l-99.5-53.1L529.1,568.2c-3.7,1.6-7,3-10.4,3.4
	l-0.8,0.4h-2.5h-0.6h-1.4h-0.5h-2.9l-0.6-0.4c-3.7-0.4-6.8-1.8-10.1-3.4L298.1,460.5l-99.2,53.1
	C303.9,569.8,408.9,626.3,514.2,682.5L514.2,682.5z M514.2,504L514.2,504c104.6-56,210.2-112.7,315-168.7l-315-169.2L198.9,335.3
	C303.9,391.4,408.9,448,514.2,504L514.2,504z"/>
</svg>
