<?xml version="1.0" encoding="utf-8"?>
<!-- Generator: Adobe Illustrator 22.0.1, SVG Export Plug-In . SVG Version: 6.00 Build 0)  -->
<svg version="1.1" id="图层_1" xmlns="http://www.w3.org/2000/svg" xmlns:xlink="http://www.w3.org/1999/xlink" x="0px" y="0px"
	 viewBox="0 0 1024 1024" style="enable-background:new 0 0 1024 1024;" xml:space="preserve">
<g>
	<path d="M901.3,123.2c-20.5-20.5-47.7-31.7-76.7-31.7H204.1c-29,0-56.2,11.3-76.7,31.7c-20.5,20.5-31.7,47.7-31.7,76.7v620.5
		c0,29,11.3,56.2,31.7,76.7c20.5,20.5,47.7,31.7,76.7,31.7h620.5c59.8,0,108.4-48.6,108.4-108.4V199.9
		C933,170.9,921.7,143.7,901.3,123.2z M853.4,199.9v620.5c0,16.5-13,29.5-29.5,29.5H203.4c-16.5,0-29.5-13-29.5-29.5V199.9
		c0-16.5,13-29.5,29.5-29.5h620.5C840.4,170.4,853.4,183.4,853.4,199.9z"/>
	<path d="M697.7,596.8H330.2c-22.1,0-39.5,17.4-39.5,39.5s17.4,39.5,39.5,39.5h367.5c22.1,0,39.5-17.4,39.5-39.5
		S719.8,596.8,697.7,596.8z"/>
	<path d="M330.2,428.2h232.4c10.4,0,20.6-4.3,28-11.7c7.4-7.4,11.5-17.3,11.4-27.8c0-22.1-17.4-39.5-39.5-39.5H330.2
		c-22.1,0-39.5,17.4-39.5,39.5S308.1,428.2,330.2,428.2z"/>
	<path d="M697.7,428.2c10.8,0,20.8-4.3,27.6-11.8c7.5-6.8,11.8-16.9,11.8-27.6c0-9.9-4.4-20.2-11.7-27.5
		c-6.8-7.5-16.9-11.9-27.7-11.9c-9.9,0-20.2,4.4-27.5,11.7c-7.5,6.8-11.9,16.9-11.9,27.7c0,9.9,4.4,20.2,11.7,27.5
		C676.8,423.9,686.9,428.2,697.7,428.2z"/>
</g>
</svg>
