<?xml version="1.0" encoding="utf-8"?>
<!-- Generator: Adobe Illustrator 21.0.0, SVG Export Plug-In . SVG Version: 6.00 Build 0)  -->
<svg version="1.1" id="图层_1" xmlns="http://www.w3.org/2000/svg" xmlns:xlink="http://www.w3.org/1999/xlink" x="0px" y="0px"
	 viewBox="0 0 77 77" style="enable-background:new 0 0 77 77;" xml:space="preserve">
<style type="text/css">
	.st0{clip-path:url(#SVGID_2_);}
	.st1{clip-path:url(#SVGID_4_);}
	.st2{fill:#3782D3;}
	.st3{clip-path:url(#SVGID_6_);}
	.st4{clip-path:url(#SVGID_8_);}
	.st5{fill:#CEE5FF;}
	.st6{clip-path:url(#SVGID_10_);}
	.st7{clip-path:url(#SVGID_12_);}
	.st8{clip-path:url(#SVGID_14_);}
</style>
<g>
	<defs>
		<path id="SVGID_1_" d="M54.4,41.9c2.9,3,2.3,8.4-2.6,13.3c-5,5-15.6,7.6-17.2,5.9c-1.3-1.3-0.4-5.6,1.6-9.8
			c-1.5-0.1-2.9-0.4-4.1-1c3.9-2.6-3.4-10-6.1-6c-0.6-1.2-0.9-2.5-0.9-3.9c-4.4,1.8-8.9,2.4-10,1.4c-2-2,1.3-11.8,6.3-16.8
			c4.9-4.9,10.3-5.5,13.4-2.7c1.1-1.2,2.2-2.4,3.5-3.6C53.8,3.2,71.5-0.3,74.3,2.5C76.9,5,73.7,22.9,58,38.4
			C56.8,39.7,55.6,40.8,54.4,41.9z"/>
	</defs>
	<clipPath id="SVGID_2_">
		<use xlink:href="#SVGID_1_"  style="overflow:visible;"/>
	</clipPath>
	<g class="st0">
		<defs>
			<rect id="SVGID_3_" x="-19" y="-20" width="115" height="115"/>
		</defs>
		<clipPath id="SVGID_4_">
			<use xlink:href="#SVGID_3_"  style="overflow:visible;"/>
		</clipPath>
		<g class="st1">
			<path class="st2" d="M36.7,63.5c-1.6,0-2.9-0.3-3.6-1c-2.1-2.1-1-6.6,0.2-9.6c-0.7-0.2-1.5-0.5-2.1-0.8L28,50.6l2.9-1.9
				c0.2-0.1,0.3-0.2,0.2-0.7c-0.2-1.2-1.7-2.7-2.9-2.9c-0.4-0.1-0.5,0-0.7,0.3l-1.9,2.9l-1.5-3.1c-0.3-0.7-0.6-1.4-0.8-2.1
				c-3,1-7.8,2.1-9.8,0.1c-0.8-0.8-1.2-1.9-1.2-3.5c0-4.1,3.1-11.7,7.5-16.1c4.8-4.7,10.4-6.2,14.5-3.9c0.7-0.8,1.5-1.6,2.3-2.4
				C53,1.2,71.7-2.8,75.7,1.1c0.9,0.9,1.4,2.4,1.4,4.6c0,6.7-4.7,21.3-17.7,34.1c-0.8,0.8-1.6,1.6-2.4,2.3c2.3,4,0.9,9.7-3.9,14.5
				C48.9,60.8,41.3,63.5,36.7,63.5z M35.9,59.6c2,0.3,10.2-1.6,14.4-5.8c3.9-3.8,4.9-8.2,2.6-10.5l-1.4-1.5l1.5-1.4
				c1.1-1,2.3-2.2,3.6-3.4c15.1-15,17.5-30.9,16.3-33.1c-2.3-1.5-18.4,1.4-33.4,16.2c-1.2,1.2-2.4,2.4-3.4,3.5l-1.3,1.5l-1.5-1.4
				c-2.4-2.3-6.8-1.2-10.6,2.6c-4.4,4.3-6.7,12-6.3,13.9c1,0.2,4.1-0.2,7.8-1.7l2.6-1.1l0.1,2.8c0,0.3,0,0.7,0.1,1
				c0.6-0.1,1.3-0.1,2,0c2.7,0.6,5.4,3.2,5.9,6c0.1,0.7,0.1,1.3,0,2c0.4,0.1,0.8,0.1,1.2,0.1l3,0.1l-1.3,2.7
				C36.1,55.9,35.7,58.7,35.9,59.6z M35.7,59.5L35.7,59.5z M16.5,40.4L16.5,40.4L16.5,40.4z"/>
		</g>
	</g>
</g>
<g>
	<defs>
		<circle id="SVGID_5_" cx="53.1" cy="23.7" r="6.3"/>
	</defs>
	<clipPath id="SVGID_6_">
		<use xlink:href="#SVGID_5_"  style="overflow:visible;"/>
	</clipPath>
	<g class="st3">
		<defs>
			<rect id="SVGID_7_" x="-19" y="-20" width="115" height="115"/>
		</defs>
		<clipPath id="SVGID_8_">
			<use xlink:href="#SVGID_7_"  style="overflow:visible;"/>
		</clipPath>
		<g class="st4">
			<path class="st5" d="M53.1,32c-4.6,0-8.3-3.7-8.3-8.3s3.7-8.3,8.3-8.3c4.6,0,8.3,3.7,8.3,8.3S57.6,32,53.1,32z M53.1,19.4
				c-2.4,0-4.3,1.9-4.3,4.3s1.9,4.3,4.3,4.3s4.3-1.9,4.3-4.3S55.4,19.4,53.1,19.4z"/>
		</g>
	</g>
</g>
<g>
	<defs>
		<rect id="SVGID_9_" x="-19" y="-20" width="115" height="115"/>
	</defs>
	<clipPath id="SVGID_10_">
		<use xlink:href="#SVGID_9_"  style="overflow:visible;"/>
	</clipPath>
	<g class="st6">
		<path class="st2" d="M3.8,71.2l1.9-3.3c5.2-8.7,8.7-14,10.8-16.1c5.7-5.7,8.6-4,9.6-3c0.8,0.8,1.2,1.7,1.2,2.7
			c0,1.8-1.3,4-4.2,6.9c-2.3,2.3-7.6,5.9-16.1,10.8L3.8,71.2z M23.6,49.8c-1.4,0-3.4,1.2-5.7,3.5c-1.7,1.7-4.5,5.8-8.5,12.3
			c6.3-3.8,10.5-6.7,12.3-8.5l0,0c2.4-2.4,3.6-4.3,3.6-5.5c0-0.5-0.2-0.9-0.6-1.3C24.5,49.9,24.1,49.8,23.6,49.8z"/>
	</g>
</g>
<g>
	<defs>
		<path id="SVGID_11_" d="M17.4,68.6c4.8,3,10.6,4.8,16.7,4.8c17.4,0,31.5-14.1,31.5-31.5c0-1.7-0.1-3.3-0.4-4.9 M39,10.8
			c-1.5-0.2-3.1-0.3-4.7-0.3c-17.5,0-31.7,14.1-31.7,31.4c0,5.7,1.6,11.1,4.3,15.8"/>
	</defs>
	<clipPath id="SVGID_12_">
		<use xlink:href="#SVGID_11_"  style="overflow:visible;"/>
	</clipPath>
	<g class="st7">
		<defs>
			<rect id="SVGID_13_" x="-19" y="-20" width="115" height="115"/>
		</defs>
		<clipPath id="SVGID_14_">
			<use xlink:href="#SVGID_13_"  style="overflow:visible;"/>
		</clipPath>
		<g class="st8">
			<path class="st5" d="M34.1,75.3c-6.3,0-12.4-1.8-17.7-5.1l2.1-3.3c4.7,2.9,10.1,4.5,15.6,4.5c16.3,0,29.5-13.2,29.5-29.5
				c0-1.5-0.1-3.1-0.4-4.6l3.9-0.6c0.3,1.7,0.4,3.5,0.4,5.2C67.5,60.3,52.5,75.3,34.1,75.3z M5.2,58.6c-3-5.1-4.5-10.9-4.5-16.7
				c0-18.4,15.1-33.4,33.6-33.4c1.7,0,3.3,0.1,5,0.4l-0.6,3.9c-1.4-0.2-2.9-0.3-4.4-0.3c-16.4,0-29.7,13.2-29.7,29.5
				c0,5.2,1.4,10.3,4,14.8L5.2,58.6z"/>
		</g>
	</g>
</g>
</svg>
