<?xml version="1.0" encoding="utf-8"?>
<!-- Generator: Adobe Illustrator 21.0.0, SVG Export Plug-In . SVG Version: 6.00 Build 0)  -->
<svg version="1.1" id="图层_1" xmlns="http://www.w3.org/2000/svg" xmlns:xlink="http://www.w3.org/1999/xlink" x="0px" y="0px"
	 viewBox="0 0 77 77" style="enable-background:new 0 0 77 77;" xml:space="preserve">
<style type="text/css">
	.st0{clip-path:url(#SVGID_2_);fill:none;stroke:#CEE5FF;stroke-width:2;stroke-miterlimit:10;}
	.st1{clip-path:url(#SVGID_2_);fill:none;stroke:#3782D3;stroke-width:2;stroke-miterlimit:10;}
	.st2{clip-path:url(#SVGID_4_);}
	.st3{clip-path:url(#SVGID_6_);fill:#CEE5FF;}
	.st4{clip-path:url(#SVGID_8_);fill:none;stroke:#3782D3;stroke-width:2;stroke-miterlimit:10;}
</style>
<g>
	<defs>
		<rect id="SVGID_1_" x="-11" y="-8.5" width="96" height="96"/>
	</defs>
	<clipPath id="SVGID_2_">
		<use xlink:href="#SVGID_1_"  style="overflow:visible;"/>
	</clipPath>
	<path class="st0" d="M20.6,22.7h-6.2c-1.8,0-3.3,1.5-3.3,3.3v22.6"/>
	<path class="st1" d="M20.2,49.8V16.9c0-1.8,1.5-3.3,3.3-3.3h32.8c1.8,0,3.3,1.5,3.3,3.3v20.5"/>
</g>
<g>
	<defs>
		<polygon id="SVGID_3_" points="34.1,14.5 44.8,14.5 44.8,26.8 39.5,24.7 34.1,26.8 		"/>
	</defs>
	<clipPath id="SVGID_4_">
		<use xlink:href="#SVGID_3_"  style="overflow:visible;"/>
	</clipPath>
	<g class="st2">
		<defs>
			<rect id="SVGID_5_" x="-11" y="-8.5" width="96" height="96"/>
		</defs>
		<clipPath id="SVGID_6_">
			<use xlink:href="#SVGID_5_"  style="overflow:visible;"/>
		</clipPath>
		<rect x="30" y="10.4" class="st3" width="18.9" height="20.5"/>
	</g>
</g>
<g>
	<defs>
		<rect id="SVGID_7_" x="-11" y="-8.5" width="96" height="96"/>
	</defs>
	<clipPath id="SVGID_8_">
		<use xlink:href="#SVGID_7_"  style="overflow:visible;"/>
	</clipPath>
	<path class="st4" d="M1.7,50.2L1.7,50.2C1.3,51.5,2,53,3.4,53.4L38.6,65c2.3,0.8,4.9,0.4,6.9-0.9l18.7-11.8
		c1.4-0.9,3.1-1.4,4.8-1.4h3.6c1.4,0,2.5-1.1,2.5-2.5v-8.5c0-1.4-1.1-2.5-2.5-2.5H58.9c-0.7,0-1.4,0.1-2,0.3l-26.4,6.7
		c-1.5,0.4-2.3,1.9-2,3.3c0.1,0.2,0.1,0.4,0.2,0.6c1,1.9,3,3,5.1,2.8l11.7-1l-5.3,2.5L5.1,48C3.6,47.8,2.2,48.7,1.7,50.2z"/>
</g>
</svg>
