<?xml version="1.0" encoding="utf-8"?>
<!-- Generator: Adobe Illustrator 21.0.0, SVG Export Plug-In . SVG Version: 6.00 Build 0)  -->
<svg version="1.1" id="图层_1" xmlns="http://www.w3.org/2000/svg" xmlns:xlink="http://www.w3.org/1999/xlink" x="0px" y="0px"
	 viewBox="0 0 77 77" style="enable-background:new 0 0 77 77;" xml:space="preserve">
<style type="text/css">
	.st0{clip-path:url(#SVGID_2_);}
	.st1{clip-path:url(#SVGID_4_);fill:none;stroke:#3782D3;stroke-width:4;stroke-miterlimit:10;}
	.st2{clip-path:url(#SVGID_6_);fill:none;stroke:#3782D3;stroke-width:2;stroke-miterlimit:10;}
	.st3{clip-path:url(#SVGID_8_);}
	.st4{clip-path:url(#SVGID_10_);fill:none;stroke:#3782D3;stroke-width:4;stroke-miterlimit:10;}
	.st5{clip-path:url(#SVGID_12_);fill:none;stroke:#CEE5FF;stroke-width:2;stroke-miterlimit:10;}
	.st6{clip-path:url(#SVGID_14_);}
	.st7{clip-path:url(#SVGID_16_);fill:#CEE5FF;}
</style>
<g>
	<defs>
		<path id="SVGID_1_" d="M9.9,7h56.9c1.9,0,3.5,1.3,3.9,3.1L75.7,32c0.5,2.2-0.8,4.3-3,4.8c-0.6,0.1-1.2,0.1-1.8,0
			c-10.2-2.3-20.7-3.5-31.5-3.5c-11.1,0-22.2,1.2-33.5,3.6c-2.2,0.5-4.3-0.9-4.7-3.1c-0.1-0.6-0.1-1.1,0-1.7l4.8-22
			C6.4,8.3,8,7,9.9,7z"/>
	</defs>
	<clipPath id="SVGID_2_">
		<use xlink:href="#SVGID_1_"  style="overflow:visible;"/>
	</clipPath>
	<g class="st0">
		<defs>
			<rect id="SVGID_3_" x="-18" y="-23" width="117" height="117"/>
		</defs>
		<clipPath id="SVGID_4_">
			<use xlink:href="#SVGID_3_"  style="overflow:visible;"/>
		</clipPath>
		<path class="st1" d="M9.9,7h56.9c1.9,0,3.5,1.3,3.9,3.1L75.7,32c0.5,2.2-0.8,4.3-3,4.8c-0.6,0.1-1.2,0.1-1.8,0
			c-10.2-2.3-20.7-3.5-31.5-3.5c-11.1,0-22.2,1.2-33.5,3.6c-2.2,0.5-4.3-0.9-4.7-3.1c-0.1-0.6-0.1-1.1,0-1.7l4.8-22
			C6.4,8.3,8,7,9.9,7z"/>
	</g>
</g>
<g>
	<defs>
		<rect id="SVGID_5_" x="-18" y="-23" width="117" height="117"/>
	</defs>
	<clipPath id="SVGID_6_">
		<use xlink:href="#SVGID_5_"  style="overflow:visible;"/>
	</clipPath>
	<path class="st2" d="M65,34.5v31.6c0,2.2-1.7,3.9-3.9,3.9H14.9c-2.1,0-3.9-1.7-3.9-3.9V34.5"/>
</g>
<g>
	<defs>
		<path id="SVGID_7_" d="M52.5,47L52.5,47c4.1,0,7.5,3.4,7.5,7.5V71H45V54.5C45,50.4,48.4,47,52.5,47z"/>
	</defs>
	<clipPath id="SVGID_8_">
		<use xlink:href="#SVGID_7_"  style="overflow:visible;"/>
	</clipPath>
	<g class="st3">
		<defs>
			<rect id="SVGID_9_" x="-18" y="-23" width="117" height="117"/>
		</defs>
		<clipPath id="SVGID_10_">
			<use xlink:href="#SVGID_9_"  style="overflow:visible;"/>
		</clipPath>
		<path class="st4" d="M52.5,47L52.5,47c4.1,0,7.5,3.4,7.5,7.5V71H45V54.5C45,50.4,48.4,47,52.5,47z"/>
	</g>
</g>
<g>
	<defs>
		<rect id="SVGID_11_" x="-18" y="-23" width="117" height="117"/>
	</defs>
	<clipPath id="SVGID_12_">
		<use xlink:href="#SVGID_11_"  style="overflow:visible;"/>
	</clipPath>
	<path class="st5" d="M18,38h21c1.1,0,2,0.9,2,2v14c0,1.1-0.9,2-2,2H18c-1.1,0-2-0.9-2-2V40C16,38.9,16.9,38,18,38z"/>
</g>
<g>
	<defs>
		<path id="SVGID_13_" d="M66,38h8c0.6,0,1,0.4,1,1v16c0,0.6-0.4,1-1,1h-8V38z"/>
	</defs>
	<clipPath id="SVGID_14_">
		<use xlink:href="#SVGID_13_"  style="overflow:visible;"/>
	</clipPath>
	<g class="st6">
		<defs>
			<rect id="SVGID_15_" x="-18" y="-23" width="117" height="117"/>
		</defs>
		<clipPath id="SVGID_16_">
			<use xlink:href="#SVGID_15_"  style="overflow:visible;"/>
		</clipPath>
		<rect x="61" y="33" class="st7" width="19" height="28"/>
	</g>
</g>
</svg>
