<?xml version="1.0" encoding="utf-8"?>
<!-- Generator: Adobe Illustrator 22.0.1, SVG Export Plug-In . SVG Version: 6.00 Build 0)  -->
<svg version="1.1" id="图层_1" xmlns="http://www.w3.org/2000/svg" xmlns:xlink="http://www.w3.org/1999/xlink" x="0px" y="0px"
	 viewBox="0 0 128 128" style="enable-background:new 0 0 128 128;" xml:space="preserve">
<path d="M106,12.5c0-1.2-1-2.1-2.1-2.1H89.2c-0.8,0-1.6,0.5-1.9,1.2L64.6,56.8h-0.9L41,11.5c-0.4-0.7-1.1-1.2-1.9-1.2H24.2
	c-0.3,0-0.7,0.1-1,0.3c-1,0.6-1.4,1.9-0.9,2.9l27.9,51.4H34.9c-1.2,0-2.1,1-2.1,2.1v7.3c0,1.2,1,2.1,2.1,2.1h20.4v10.5H34.9
	c-1.2,0-2.1,1-2.1,2.1v7.3c0,1.2,1,2.1,2.1,2.1h20.4v17c0,1.2,1,2.1,2.1,2.1h13.4c1.2,0,2.1-1,2.1-2.1v-17h20.5c1.2,0,2.1-1,2.1-2.1
	v-7.3c0-1.2-1-2.1-2.1-2.1H72.9V76.4h20.5c1.2,0,2.1-1,2.1-2.1V67c0-1.2-1-2.1-2.1-2.1H77.9l27.8-51.4C105.9,13.2,106,12.8,106,12.5
	z"/>
</svg>
