<?xml version="1.0" standalone="no"?><!DOCTYPE svg PUBLIC "-//W3C//DTD SVG 1.1//EN" "http://www.w3.org/Graphics/SVG/1.1/DTD/svg11.dtd"><svg t="1539857140166" class="icon" style="" viewBox="0 0 1024 1024" version="1.1" xmlns="http://www.w3.org/2000/svg" p-id="20445" xmlns:xlink="http://www.w3.org/1999/xlink" width="128" height="128"><defs><style type="text/css"></style></defs><path d="M899.892913 150.754492c0-44.703131-40.811498-83.892689-87.351464-83.892689L203.672214 66.861804c-45.081755 0-80.432891 36.487006-80.432891 83.027995l0 446.27202c0 29.29828 0 73.568553 42.865273 113.137757L445.295274 932.97589c15.676028 15.621792 36.541241 24.161283 58.702983 24.161283 22.217001 0 43.082214-8.593725 56.486502-22.214954l281.462416-225.622644c36.270065-29.244045 58.811454-73.244164 58.811454-114.920356L899.892913 150.754492zM807.298028 666.162102 523.620154 893.786333c-10.378371 10.379395-26.594705 12.269441-41.513486-2.000564l-279.893688-224.38035c-22.054295-20.37812-23.622-40.540322-23.622-71.243601L178.590979 149.889799c0-15.784498 10.756995-27.676339 25.081235-27.676339l608.869235 0c15.838733 0 31.999808 14.378475 31.999808 28.595268l0.864694 443.624726C845.405951 613.352339 835.406203 643.460054 807.298028 666.162102z" p-id="20446"></path><path d="M693.405071 316.593542c-12.540617-6.486738-28.324092-1.620917-34.919301 11.135618L512.269641 610.596576 365.61963 320.43094c-6.432503-12.756535-22.107507-17.784038-34.81083-11.458983-12.811794 6.432503-17.946744 22.054295-11.460006 34.81083l147.081847 291.029306c10.378371 20.594037 26.919093 32.485879 45.459355 32.594349 0.10847 0 0.162706 0 0.271176 0 18.432815 0 35.080983-11.673877 45.783743-32.215726l146.595776-283.676851C711.134875 338.809519 706.108395 323.187727 693.405071 316.593542z" p-id="20447"></path></svg>