<?xml version="1.0" encoding="utf-8"?>
<!-- Generator: Adobe Illustrator 22.1.0, SVG Export Plug-In . SVG Version: 6.00 Build 0)  -->
<svg version="1.1" id="图层_1" xmlns="http://www.w3.org/2000/svg" xmlns:xlink="http://www.w3.org/1999/xlink" x="0px" y="0px"
	 viewBox="0 0 48 48" style="enable-background:new 0 0 48 48;" xml:space="preserve">
<style type="text/css">
	.st0{fill:#717171;}
</style>
<g>
	<path class="st0" d="M24,7C14.6,7,7,14.6,7,24s7.6,17,17,17s17-7.6,17-17S33.4,7,24,7z M24,37c-7.2,0-13-5.8-13-13s5.8-13,13-13
		s13,5.8,13,13S31.2,37,24,37z"/>
	<polygon class="st0" points="28.2,16.9 24,21.2 19.8,16.9 16.9,19.8 21.2,24 16.9,28.2 19.8,31.1 24,26.8 28.2,31.1 31.1,28.2 
		26.8,24 31.1,19.8 	"/>
</g>
</svg>
