<?xml version="1.0" encoding="utf-8"?>
<!-- Generator: Adobe Illustrator 22.0.1, SVG Export Plug-In . SVG Version: 6.00 Build 0)  -->
<svg version="1.1" id="图层_1" xmlns="http://www.w3.org/2000/svg" xmlns:xlink="http://www.w3.org/1999/xlink" x="0px" y="0px"
	 viewBox="0 0 200 200" style="enable-background:new 0 0 200 200;" xml:space="preserve">
<g>
	<path d="M118.4,107c6.8-5.5,11.1-13.8,11.1-23.2c0-16.5-13.8-30.1-30.3-29.8c-16.3,0.3-29.4,13.5-29.4,29.8
		c0,9.4,4.3,17.7,11.1,23.2c-4.7,2.2-9.1,5.2-12.9,9c-8.1,8.2-12.8,18.9-13.1,30.4c0,0.7,0.5,1.2,1.2,1.2h8.3c0.6,0,1.2-0.5,1.2-1.1
		c0.3-8.6,3.8-16.7,9.9-22.9c6.4-6.4,15-10,24-10s17.6,3.5,24,10c6.1,6.1,9.6,14.2,9.9,22.9c0,0.6,0.6,1.1,1.2,1.1h8.3
		c0.7,0,1.2-0.6,1.2-1.2c-0.3-11.5-4.9-22.2-13.1-30.4C127.5,112.2,123.1,109.2,118.4,107z M99.7,102.9c-5.1,0-9.9-2-13.5-5.6
		c-3.7-3.7-5.6-8.5-5.6-13.7c0-4.9,2-9.6,5.4-13.1c3.6-3.7,8.4-5.7,13.5-5.8c5.1,0,10,1.9,13.6,5.5c3.7,3.6,5.7,8.5,5.7,13.6
		c0,5.1-2,9.9-5.6,13.5C109.6,100.9,104.8,102.9,99.7,102.9z"/>
	<path d="M55.1,106.4c0-2.4,0.2-4.7,0.6-6.9c0.1-0.5-0.2-1.1-0.7-1.3c-2-0.9-3.9-2.2-5.5-3.7c-3.8-3.8-5.9-8.8-5.8-14.2
		c0.1-4.8,2.1-9.3,5.4-12.8c3.7-3.8,8.6-5.8,13.9-5.8c2,0,4,0.4,5.8,1c2.4-3.1,5.4-5.8,8.8-7.7c-4.3-2.4-9.2-3.9-14.4-4
		c-16.5-0.3-30.3,13.3-30.3,29.8c0,9.4,4.3,17.7,11.1,23.2c-4.7,2.2-9.1,5.2-12.9,9c-8.2,8.2-12.8,18.9-13.1,30.4
		c0,0.7,0.5,1.2,1.2,1.2h8.4c0.6,0,1.2-0.5,1.2-1.1c0.3-8.6,3.8-16.7,9.9-22.9c4.4-4.4,9.7-7.4,15.6-8.9c0.6-0.1,1-0.7,0.9-1.3
		C55.2,109.1,55.1,107.8,55.1,106.4z"/>
	<path d="M169.9,113c-3.8-3.8-8.2-6.8-12.9-9c6.8-5.5,11.1-13.8,11.1-23.2c0-16.5-13.8-30-30.3-29.8c-5.7,0.1-10.9,1.8-15.4,4.6
		c3.2,2,6,4.7,8.3,7.7c2.3-1,4.8-1.6,7.4-1.6c5.3-0.1,10.2,2,13.9,5.8c3.4,3.4,5.3,8,5.4,12.8c0.1,5.4-1.9,10.5-5.8,14.2
		c-1.6,1.6-3.5,2.8-5.5,3.7c-0.5,0.2-0.8,0.8-0.7,1.3c0.4,2.3,0.6,4.6,0.6,6.9c0,1.3-0.1,2.6-0.2,3.9c-0.1,0.6,0.3,1.1,0.9,1.3
		c5.9,1.5,11.2,4.5,15.6,8.9c6.2,6.1,9.7,14.2,9.9,22.9c0,0.6,0.6,1.1,1.2,1.1h8.4c0.7,0,1.2-0.6,1.2-1.2
		C182.7,131.9,178.1,121.1,169.9,113z"/>
</g>
</svg>
