<?xml version="1.0" encoding="utf-8"?>
<!-- Generator: Adobe Illustrator 22.0.1, SVG Export Plug-In . SVG Version: 6.00 Build 0)  -->
<svg version="1.1" id="图层_1" xmlns="http://www.w3.org/2000/svg" xmlns:xlink="http://www.w3.org/1999/xlink" x="0px" y="0px"
	 viewBox="0 0 128 128" style="enable-background:new 0 0 128 128;" xml:space="preserve">
<path d="M112.4,24.5l-4.8-0.1c-0.1,0-10.9-0.2-22-4.5c-11.4-4.4-18.7-9.5-18.8-9.6l-2.9-2l-2.9,2c-0.1,0-7.4,5.1-18.8,9.6
	c-11.1,4.3-21.9,4.5-21.9,4.5l-4.8,0.1v46.8c0,23.5,31.5,48.3,48.5,48.3c17,0,48.5-24.8,48.5-48.3L112.4,24.5L112.4,24.5z M64,112.7
	c-14.1,0-41.5-22.3-41.5-41.4v-40c4-0.3,13-1.3,22.3-4.9c9.6-3.7,16.6-8,19.2-9.6c2.8,1.8,9.6,5.9,19.2,9.6
	c9.4,3.7,18.4,4.6,22.3,4.9l0,40C105.5,90.4,78.1,112.7,64,112.7L64,112.7z"/>
<path d="M85.3,46.2L60,71.5l-10.6-12c-1.7-2-4.7-2.1-6.7-0.4c-2,1.7-2.2,4.7-0.4,6.7l13.9,15.8c0.9,1,2.1,1.6,3.4,1.6
	c0.1,0,0.1,0,0.1,0c1.3,0,2.5-0.5,3.3-1.4L92,52.9c1.8-1.8,1.8-4.8,0-6.7C90.2,44.4,87.2,44.4,85.3,46.2L85.3,46.2z"/>
</svg>
